<svg id="Layer_1" data-name="Layer 1" xmlns="http://www.w3.org/2000/svg" viewBox="0 0 1018.01 193.83"><defs><style>.cls-1{fill:#09b4be;}.cls-2{fill:#e62635;}.cls-3{fill:#0bb4be;}.cls-4{fill:#a6a5a4;}</style></defs><title>logo_9</title><path class="cls-1" d="M602.3,97.63V62.68c0-1.37,0-2.74.08-4.11a1.68,1.68,0,0,1,1.27-1.4c.68-.06,1.36-.14,2-.14h24.67c1.61.06,2.26.63,2.3,2.09,0,1.88,0,3.76.06,5.65a3.94,3.94,0,0,0,.33,1.48.9.9,0,0,0,.82.38,9.68,9.68,0,0,0,1.77-1c1.7-1.15,3.36-2.37,5.08-3.49a42.24,42.24,0,0,1,10.15-4.89,31.92,31.92,0,0,1,18.24-.41A16.71,16.71,0,0,1,680.3,66a36.13,36.13,0,0,1,3,10.83c.18,1.18.23,2.38.42,3.57,0,.19.43.32.66.49.09-.15.25-.29.27-.44.12-1.18.29-2.37.3-3.55,0-4.8,0-9.6,0-14.4,0-1.19,0-2.39.08-3.59a1.69,1.69,0,0,1,1.73-1.54c2,0,4.11,0,6.16-.08a9.2,9.2,0,0,0,2-.29,1.12,1.12,0,0,0,.66-.67,13.27,13.27,0,0,0,.32-2.51c0-3.6,0-7.2,0-10.79a8.07,8.07,0,0,1,.29-2,1.19,1.19,0,0,1,.71-.66,4.77,4.77,0,0,1,1.51-.24q12.84,0,25.7,0a8.62,8.62,0,0,1,1,.15,1.2,1.2,0,0,1,1,1,12.12,12.12,0,0,1,.19,2.56c0,3.25,0,6.51,0,9.76a12,12,0,0,0,.22,2.55,1.16,1.16,0,0,0,1,1c1.54.06,3.07.17,4.61.19,3.76.05,7.53.05,11.3.1a1.51,1.51,0,0,1,1.62,1.58q0,10.8,0,21.59a1.61,1.61,0,0,1-1.59,1.65l-10.79.09c-7.14.06-6.38-.79-6.41,6.2q0,8.48,0,17a26.16,26.16,0,0,0,.31,4.6,6.1,6.1,0,0,0,5.06,5.17,25,25,0,0,0,4.59.41c2.57,0,5.14,0,7.71,0,1.32,0,1.9.44,2.13,1.71.67,3.71,1.3,7.42,1.94,11.14.08.5.1,1,.2,1.52.79,4.11,1,4.15-3.48,5.92a57,57,0,0,1-25.18,3.87,31.74,31.74,0,0,1-9-1.88,19.12,19.12,0,0,1-10.85-9.67,30.83,30.83,0,0,1-2.92-8.74,66.17,66.17,0,0,1-1-11.25c0-6.68,0-13.36,0-20,0-1.37,0-2.74,0-4.11a1.61,1.61,0,0,0-1.54-1.68c-.86,0-1.71-.07-2.57-.08-1.88,0-3.77,0-5.65,0s-2.3.32-2.34,2.34c0,1.71,0,3.43,0,5.14v42.66c0,1.37,0,2.74,0,4.11s-.63,2-2.29,2.07c-.35,0-.69,0-1,0-7.88,0-15.76,0-23.65,0a8.08,8.08,0,0,1-2-.18,1.18,1.18,0,0,1-1-1c-.07-1.36-.18-2.72-.18-4.09q0-17.73,0-35.46a44.41,44.41,0,0,0-.09-4.62,30.6,30.6,0,0,0-.91-5,4.89,4.89,0,0,0-4-3.57,12.49,12.49,0,0,0-7.07.57,20.14,20.14,0,0,0-6,3.83c-2.66,2.37-2.8,2.59-2.81,6.19,0,12.34,0,24.68,0,37,0,7.13.65,6.39-6.24,6.41q-9.51,0-19,0c-1.2,0-2.39-.06-3.59-.11a1.54,1.54,0,0,1-1.4-1.26c-.06-1.53-.13-3.07-.13-4.61Q602.28,115.11,602.3,97.63Z" transform="translate(-22.68 -17.95)"/><path class="cls-2" d="M167.06,105.73q-10,0-20,0c-1.19,0-2.39.12-3.58.19-.33,0-.85.79-.78,1.14,1.27,6.36,5.7,8.79,10.26,9.16a50.59,50.59,0,0,0,12.29-.41,60,60,0,0,0,14.72-4.37,40,40,0,0,1,3.84-1.39,1.25,1.25,0,0,1,.93.31,2.27,2.27,0,0,1,.6.82q3.49,7.14,7,14.3a1.6,1.6,0,0,1-.4,1.84c-8.53,5.94-17.68,10.32-28.13,11.76a63,63,0,0,1-19.43-.19,38.61,38.61,0,0,1-17.37-7.19,34.38,34.38,0,0,1-12.71-20A58.55,58.55,0,0,1,115,81.26,34.6,34.6,0,0,1,128.5,62.4a35.27,35.27,0,0,1,12.62-5.53,55.73,55.73,0,0,1,24.45-.33q17.33,3.75,24.29,20.07c.47,1.1.89,2.23,1.41,3.3.1.2.58.24.89.3.08,0,.27-.19.29-.32a16.42,16.42,0,0,0,.36-2.49c0-5.66,0-11.31,0-17a15.28,15.28,0,0,1,.25-2.53,1.13,1.13,0,0,1,.64-.7,4.77,4.77,0,0,1,1.5-.25c2.06,0,4.12,0,6.17-.05,1.85,0,2.29-.51,2.31-2.54,0-3.43,0-6.85,0-10.28,0-1,.08-2.05.13-3.07a1.25,1.25,0,0,1,.94-1.09,4.51,4.51,0,0,1,1.51-.19q12.6,0,25.18,0a5.16,5.16,0,0,1,1.52.19A1.2,1.2,0,0,1,234,41c.06,1.19.12,2.38.12,3.58,0,3.25,0,6.51,0,9.76,0,2.23.36,2.57,2.77,2.58,3.94,0,7.88,0,11.82,0,1,0,2.05.07,3.07.12a1.25,1.25,0,0,1,1.08.95,4.8,4.8,0,0,1,.17,1.52q0,10,0,20c0,.34-.05.68-.08,1A1.44,1.44,0,0,1,251.65,82c-2.73,0-5.47,0-8.21.09s-5.47.08-8.21.21c-.35,0-.86.58-1,1a7.26,7.26,0,0,0-.15,2c0,3.25,0,6.51,0,9.76,0,3.77,0,7.54,0,11.3a16.22,16.22,0,0,0,.57,4,6.39,6.39,0,0,0,5.49,4.75,21.39,21.39,0,0,0,3.58.22c2.4,0,4.8,0,7.2,0s2.73.09,3.12,2.32c.87,4.89,1.65,9.79,2.45,14.69a1.65,1.65,0,0,1-.85,1.72,33.83,33.83,0,0,1-9.54,3.66,61.81,61.81,0,0,1-12.68,1.86,40.26,40.26,0,0,1-13.71-1.6,19.67,19.67,0,0,1-13.13-12.06,30.67,30.67,0,0,1-2.25-8.94c-.28-3.41-.56-6.83-.61-10.25-.1-6.51,0-13,0-19.52,0-1,0-2.06,0-3.09-.05-1.53-.57-2-2.28-2-1,0-2.06,0-3.09,0-1.87-.07-3.74-.2-5.61-.22-.22,0-.63.48-.63.73a26.45,26.45,0,0,0,.31,3.56,63.47,63.47,0,0,1,.33,15.88,20.05,20.05,0,0,1-.5,2.52,1.77,1.77,0,0,1-1.52,1.16c-1.37,0-2.74,0-4.11,0ZM154,89.64v-.07h8.68c.85,0,1.7,0,2.55-.06a1.34,1.34,0,0,0,1.29-1.26,12.74,12.74,0,0,0-1.3-5.92,10.53,10.53,0,0,0-8.81-6.09,16.68,16.68,0,0,0-2.55-.06,10.75,10.75,0,0,0-9,5,14.41,14.41,0,0,0-2.43,6.65c0,.17,0,.33,0,.5a1.13,1.13,0,0,0,.86,1.06Z" transform="translate(-22.68 -17.95)"/><path class="cls-1" d="M964.24,95.34q0,15.42,0,30.83a65,65,0,0,1-2.09,16.25,38.66,38.66,0,0,1-2.88,7.68,29.83,29.83,0,0,1-15.37,14.46,41.51,41.51,0,0,1-10.86,3,76,76,0,0,1-13.31.86,107.67,107.67,0,0,1-26.36-3.82c-2.13-.63-4.2-1.44-6.3-2.17a1.68,1.68,0,0,1-.93-1.66,17.48,17.48,0,0,1,.25-2q1.44-7.31,2.94-14.59c.36-1.82,1-2.19,2.93-1.78a128.63,128.63,0,0,0,22.35,3,47.73,47.73,0,0,0,6.66-.21c5.68-.62,9.41-3.71,11.2-9.16a18.81,18.81,0,0,0,1.09-7.54c0-.17-.1-.44-.19-.46-.32-.05-.74-.15-1,0-1.15.74-2.23,1.58-3.38,2.34a26,26,0,0,1-13,4.35,91.89,91.89,0,0,1-9.24.12c-9.65-.45-16.87-5-21.82-13.27a40.32,40.32,0,0,1-4.9-14.5,79.63,79.63,0,0,1,.08-24.56A42.75,42.75,0,0,1,883,72.11c4.27-10.13,12-15.49,22.87-16.4a35.2,35.2,0,0,1,21.61,5.12c1.61,1,3.19,2,4.79,3a1.23,1.23,0,0,0,1.59-.76c.12-1.53.21-3.07.33-4.6a1.61,1.61,0,0,1,1.36-1.31c.51,0,1-.1,1.53-.1h24.15l1,0c1.25.06,2,.7,2,1.82,0,1.37,0,2.74,0,4.11q0,16.18,0,32.36Zm-30.1,1.26h0c0-2.56,0-5.12,0-7.67a3,3,0,0,0-.76-1.83c-4-4.12-8.7-6.41-14.62-5.94-4.87.39-7.68,2.91-8.83,7.18a29.41,29.41,0,0,0,.09,15.19,13.7,13.7,0,0,0,1.7,3.69,7.88,7.88,0,0,0,5.31,3.72c6,1.16,11.54.12,16-4.42a3.75,3.75,0,0,0,1.14-2.75C934.13,101.38,934.14,99,934.14,96.6Z" transform="translate(-22.68 -17.95)"/><path class="cls-2" d="M22.68,87.33q0-22.59,0-45.2a44.31,44.31,0,0,1,.2-4.61,1.56,1.56,0,0,1,.92-1,6.22,6.22,0,0,1,2-.23c13.53,0,27.06-.09,40.58,0A58.08,58.08,0,0,1,88,40.12a50.44,50.44,0,0,1,5.12,2.36A32.88,32.88,0,0,1,109.7,63.71,49.4,49.4,0,0,1,111.19,79a45.28,45.28,0,0,1-2.39,13.08,33.21,33.21,0,0,1-15.57,18.38,47.3,47.3,0,0,1-13.46,4.82,62.25,62.25,0,0,1-12.25,1.18c-3.25,0-6.5,0-9.76.06-.85,0-1.69.12-2.54.18a1,1,0,0,0-.94,1,30.54,30.54,0,0,0-.17,3.58c0,4.45,0,8.9,0,13.36a15.33,15.33,0,0,1-.21,2.53,1.08,1.08,0,0,1-.64.67,4.46,4.46,0,0,1-1.49.27q-13.36,0-26.71,0a4.15,4.15,0,0,1-1.48-.29,1.05,1.05,0,0,1-.64-.7c-.13-1.35-.23-2.72-.23-4.08Q22.67,110.19,22.68,87.33ZM54.16,76.9H54.1c0,3.43,0,6.85,0,10.28,0,.85,0,1.7.09,2.56A1.52,1.52,0,0,0,55.55,91c4.11,0,8.21,0,12.31-.11a14.3,14.3,0,0,0,3-.44,12.16,12.16,0,0,0,9-7.65,17.57,17.57,0,0,0,1-8.08,11.51,11.51,0,0,0-8.3-10.65,22,22,0,0,0-6-1.11c-3.59-.17-7.19,0-10.79,0a1.53,1.53,0,0,0-1.61,1.59C54.15,68.69,54.16,72.79,54.16,76.9Z" transform="translate(-22.68 -17.95)"/><path class="cls-1" d="M288.71,87.25q0-22.35,0-44.7c0-1.54,0-3.07.11-4.61a1.44,1.44,0,0,1,1.38-1.27c1.53-.06,3.07-.12,4.61-.12,11,0,21.92,0,32.88,0q6.18,0,12.31.54a50.88,50.88,0,0,1,16.31,4.27,33.74,33.74,0,0,1,17.27,16.85A36.88,36.88,0,0,1,376.84,70a53,53,0,0,1-.79,17.88c-2.52,10.6-8.49,18.54-18.24,23.54a47.56,47.56,0,0,1-16.17,4.75,88.67,88.67,0,0,1-12.3.72c-2.06,0-4.11,0-6.17,0-2.85,0-3.12.66-3.16,3.39,0,1.2,0,2.4,0,3.6,0,3.25,0,6.5,0,9.76,0,1,0,2.05-.08,3.08a1.83,1.83,0,0,1-1.55,1.75c-.34,0-.68.06-1,.06H291.14a4.43,4.43,0,0,1-1.48-.29,1.43,1.43,0,0,1-.68-.69,2.28,2.28,0,0,1-.23-1c0-1.54,0-3.09,0-4.63Zm31.12-10.17h0c0,3.93,0,7.86,0,11.79,0,1.95.57,2.55,2.34,2.57,3.42,0,6.84,0,10.25,0a17.62,17.62,0,0,0,5.54-1,11.61,11.61,0,0,0,7.47-6.55,16.31,16.31,0,0,0,1.26-10,13.45,13.45,0,0,0-1.78-4.77A12.18,12.18,0,0,0,337,63.92a36.58,36.58,0,0,0-6.09-.74c-2.73-.12-5.46,0-8.2,0-.34,0-.68,0-1,.05a2,2,0,0,0-1.83,2.08c0,1-.05,2-.05,3.07C319.82,71.27,319.83,74.17,319.83,77.08Z" transform="translate(-22.68 -17.95)"/><path class="cls-3" d="M793.21,97.66q0-17.73,0-35.45c0-1.2,0-2.4.1-3.59A1.71,1.71,0,0,1,795,57.07c.51,0,1,0,1.54,0q11.81,0,23.63,0a8.71,8.71,0,0,1,2,.18,1.2,1.2,0,0,1,1,1c.08,1.7.11,3.41.19,5.11,0,1,.09,2,.23,3.06,0,.16.64.41.87.33a9.06,9.06,0,0,0,1.78-1c2.27-1.52,4.48-3.15,6.81-4.59a37.52,37.52,0,0,1,12.35-4.87,32,32,0,0,1,14.75.6,16.26,16.26,0,0,1,10.54,8.38,29.76,29.76,0,0,1,3,8.72,61.2,61.2,0,0,1,1,10.73q0,25.17,0,50.35a13.42,13.42,0,0,1-.27,2.53,1.2,1.2,0,0,1-.7.68,4.5,4.5,0,0,1-1.5.25q-12.86,0-25.69,0a2,2,0,0,1-1-.18c-.39-.26-.93-.62-1-1a22.31,22.31,0,0,1-.23-3.57q0-18.5,0-37c0-1.88-.08-3.77-.19-5.64a12.72,12.72,0,0,0-.41-2.53,5.59,5.59,0,0,0-5.19-4.25,13.54,13.54,0,0,0-8.38,1.83,26.34,26.34,0,0,0-5.23,4.11A4.77,4.77,0,0,0,823.41,94c0,8.39,0,16.78,0,25.17,0,5.31,0,10.62,0,15.93a12.73,12.73,0,0,1-.28,2.53c0,.27-.41.53-.69.68a2,2,0,0,1-1,.24H795.26l-.51,0a1.7,1.7,0,0,1-1.39-1.29c-.07-1.37-.14-2.73-.15-4.1Q793.2,115.38,793.21,97.66Z" transform="translate(-22.68 -17.95)"/><path class="cls-1" d="M450.65,110.44q0,12.33,0,24.67a12.66,12.66,0,0,1-.29,2.53,1.18,1.18,0,0,1-.71.67,4.82,4.82,0,0,1-1.51.24H422.94c-1.61-.06-2.24-.62-2.29-2.1,0-1.2,0-2.4,0-3.6,0-.51-.13-1-.2-1.52a.89.89,0,0,0-1.21-.46c-.53.43-1,.88-1.58,1.3-1.61,1.26-3.16,2.64-4.87,3.76a23.85,23.85,0,0,1-13.08,4c-3.77,0-7.55.07-11.23-.94a35.19,35.19,0,0,1-4.41-1.37,16.82,16.82,0,0,1-8.88-8.16,26.7,26.7,0,0,1-2.51-7.79,36.75,36.75,0,0,1,.17-14.29,20.24,20.24,0,0,1,9.66-13.34,35.59,35.59,0,0,1,14.11-4.44A112,112,0,0,1,411.45,89c2.57,0,5.13-.07,7.7-.13a1.57,1.57,0,0,0,1.27-1.38,9,9,0,0,0-.8-4.5A6.6,6.6,0,0,0,415,79.18a24.33,24.33,0,0,0-7.66-.47,147.27,147.27,0,0,0-15.79,2.05c-2,.37-4,.68-6.07,1-.27,0-.61-.26-.88-.45a.79.79,0,0,1-.21-.46q-2-8.76-4-17.52a1.4,1.4,0,0,1,1-1.58c2.8-.77,5.61-1.53,8.43-2.26,4.81-1.24,9.68-2.18,14.59-3a83.37,83.37,0,0,1,16.4-.75A45.71,45.71,0,0,1,432,57.58c9,2.65,14.63,8.52,17.07,17.53a53,53,0,0,1,1.62,13.74C450.67,96.05,450.65,103.24,450.65,110.44Zm-36.19-7.29h0c-1.54,0-3.08,0-4.62,0a17.56,17.56,0,0,0-5.52,1,5.49,5.49,0,0,0-3.14,2.51c-2.21,4-.43,9.29,3.61,10.76a13,13,0,0,0,3.47.78c3.54.25,6.68-1,9.68-2.78,1.92-1.16,3.13-2.52,2.89-4.94-.17-1.7,0-3.42-.08-5.13-.06-1.86-.86-2.15-2.19-2.2S415.83,103.15,414.46,103.15Z" transform="translate(-22.68 -17.95)"/><path class="cls-1" d="M597,98.74c0,1.66,0,3.31-.17,5a3.9,3.9,0,0,1-.63,1.3l-45.72,0a11.32,11.32,0,0,0-2.54.21c-.44.1-.79.59-1.19.9a10,10,0,0,0,1.74,5.29,10.21,10.21,0,0,0,7.48,4.9,35.46,35.46,0,0,0,4.6.34,54.53,54.53,0,0,0,21.09-3.79c.64-.25,1.27-.51,1.9-.78,6.13-2.59,4.91-3.06,8,3.21,1.67,3.37,3.26,6.78,4.87,10.19.57,1.21.39,1.74-.8,2.56A63.66,63.66,0,0,1,574,138.21a59.23,59.23,0,0,1-31-.39c-10.64-3.13-18.26-9.8-22.54-20.12a40.28,40.28,0,0,1-2.43-8.37,55.82,55.82,0,0,1,.07-21.93,2.22,2.22,0,0,0,.86-1.73c0-.67,0-1.34.08-2,.31-3.38,1.89-6.32,3.36-9.27A9.63,9.63,0,0,1,525,70.76l.22-.32c-.06-.25,0-.39.3-.41l.72-.87a9.87,9.87,0,0,1,4.24-4.29l.91-.77.33-.24a6.51,6.51,0,0,0,.64-.51.54.54,0,0,1,.63-.44,1.88,1.88,0,0,0,1.41-1,8.18,8.18,0,0,1,4.33-2.2,2.32,2.32,0,0,0,1.89-.83l.4-.12c.94-.16,2,0,2.68-.92l.19-.18.24.08,1.91-.13a2.33,2.33,0,0,0,1.7-.77l1.37-.19h19l1.36.19c.76,1,1.85.74,2.87.81l1.25.28a2.07,2.07,0,0,0,1.83.74l1.31.44,1.39.68a.35.35,0,0,1,.52.22l1.06.66a2.55,2.55,0,0,1,2,1.17,2,2,0,0,0,1.53,1,.45.45,0,0,1,.54.41,4.69,4.69,0,0,0,.64.54l.27,0,.08.25.84.76.19.16.88.86.14.15.87.88.16.18.78.86.23.3a3.69,3.69,0,0,0,.43.53,27.37,27.37,0,0,1,2.49,3.24A37.75,37.75,0,0,1,597,91.64c-.28.41-.76.82-.79,1.26a35,35,0,0,0,0,4.58C596.28,97.92,596.76,98.32,597,98.74Zm-38-9.06v.12c3.07,0,6.14,0,9.2,0a17.32,17.32,0,0,0,2-.22,1.21,1.21,0,0,0,.79-1.16,31.46,31.46,0,0,0-.73-4,10.38,10.38,0,0,0-8.55-7.82c-4.92-.88-9.14.35-12.22,4.5a14.42,14.42,0,0,0-2.74,7.06,4.45,4.45,0,0,0,.05.5,1.33,1.33,0,0,0,.95,1Z" transform="translate(-22.68 -17.95)"/><path class="cls-3" d="M519.08,83.66c0,.67-.05,1.34-.08,2a2.22,2.22,0,0,1-.86,1.73,57.71,57.71,0,0,0-15.86-.13,14.9,14.9,0,0,0-12.26,9,17.89,17.89,0,0,0-1.83,7.91c.08,9.59,0,19.19,0,28.79,0,1.37-.05,2.73-.1,4.1a1.65,1.65,0,0,1-1.28,1.39,13.16,13.16,0,0,1-1.53.13H460.63l-.51,0c-1.51-.07-2-.62-2.07-2.29s0-3.09,0-4.63q0-28.28,0-56.55,0-7.2,0-14.39a12.67,12.67,0,0,1,.21-2.55,1.21,1.21,0,0,1,1.07-1c.68-.06,1.37-.15,2.05-.15q11.82,0,23.64,0a8.12,8.12,0,0,1,2,.19,1.18,1.18,0,0,1,1,1c.08,2,.13,4.1.19,6.14.06,1.71.12,3.42.2,5.12,0,.1.28.2.43.25s.36.13.44.06a5.9,5.9,0,0,0,1.1-1c1.2-1.67,2.31-3.4,3.55-5,4.1-5.42,9.52-8.23,16.38-8,2.56.08,5.12.26,7.68.43a1.64,1.64,0,0,1,1.34,1.36c0,.51,0,1,0,1.54-.38,5.81-.79,11.62-1.14,17.44-.12,2-.11,4.09-.12,6.14C518.08,83.27,518.63,83.45,519.08,83.66Z" transform="translate(-22.68 -17.95)"/><path class="cls-3" d="M783,98.31q0,17.44,0,34.89a32.7,32.7,0,0,1-.2,4.08,1.8,1.8,0,0,1-.95,1.05,3.56,3.56,0,0,1-1.5.22q-12.57,0-25.14,0a4.45,4.45,0,0,1-1.51-.21,1.28,1.28,0,0,1-1-1.07c0-.85-.15-1.7-.15-2.55q0-36.94,0-73.88c0-.85.1-1.7.15-2.55,0-.62.53-.88,1-1a4.45,4.45,0,0,1,1.51-.21h25.14a4.53,4.53,0,0,1,1.51.22,1.25,1.25,0,0,1,1,1.06c.07,1.36.16,2.73.16,4.09Q783,80.36,783,98.31Z" transform="translate(-22.68 -17.95)"/><path class="cls-3" d="M1040.19,34.22c.17,3.75.34,7.51.49,11.27,0,.85,0,1.7,0,2.55a1.36,1.36,0,0,1-1,1.06c-2.72,0-5.45.08-8.18.09a1.57,1.57,0,0,1-1.56-1.66c-.08-2.22-.11-4.44-.21-6.66a13.49,13.49,0,0,0-.31-2c0-.16-.19-.42-.27-.41-.32,0-.82,0-.9.22-.85,1.86-1.63,3.75-2.44,5.64-.53,1.25-1,2.52-1.62,3.75a1.76,1.76,0,0,1-1.59,1.11c-1.88,0-3.76,0-5.64,0a1.74,1.74,0,0,1-1.57-1.13c-.82-1.88-1.58-3.78-2.38-5.67-.54-1.25-1.1-2.49-1.68-3.73,0-.1-.29-.1-.44-.17-.39-.17-.69,0-.73.41-.17,1.86-.36,3.72-.41,5.59-.14,5.07,0,4.78-4.81,4.79-1.53,0-3.07,0-4.61-.05a1.62,1.62,0,0,1-1.5-1.72c0-.34,0-.68,0-1q.58-13.06,1.19-26.13a8.69,8.69,0,0,1,.12-1,1.63,1.63,0,0,1,1.38-1.29c2.39,0,4.79-.09,7.18-.09,3.41,0,3.42,0,4.87,3.33s2.81,6.6,4.26,9.88a19.55,19.55,0,0,0,1.27,2.22,1,1,0,0,0,1.31,0c.5-.89,1-1.77,1.44-2.7,1.69-3.74,3.33-7.5,5-11.24a2.07,2.07,0,0,1,2-1.37c3.07,0,6.15,0,9.22,0a1.54,1.54,0,0,1,1.36,1.31c.3,4.94.58,9.89.87,14.84Z" transform="translate(-22.68 -17.95)"/><path class="cls-3" d="M767.78,49.14a21.24,21.24,0,0,1-7.57-1.42c-7.63-3-10.2-9.61-9.5-15.87a14.12,14.12,0,0,1,9.46-12.33,20.47,20.47,0,0,1,14.54-.2c6.18,2.15,10.52,7.33,10,15.55-.41,6.25-3.7,10.49-9.47,12.84A20.63,20.63,0,0,1,767.78,49.14Z" transform="translate(-22.68 -17.95)"/><path class="cls-3" d="M981,18c4.29,0,8.57,0,12.86,0a8.59,8.59,0,0,1,2,.25,1.08,1.08,0,0,1,.69.69,19.56,19.56,0,0,1,.29,3.05c0,6.39.54,5.84-5.74,5.88-4.23,0-4.25,0-4.27,4.27,0,4.45,0,8.91,0,13.36a11.36,11.36,0,0,1-.2,2.55c-.1.41-.61,1-1,1-2.91.09-5.81.08-8.71.07a1.47,1.47,0,0,1-1.23-1.42c-.05-1.36-.09-2.73-.1-4.1,0-4.29,0-8.57,0-12.85a13.18,13.18,0,0,0-.14-1.53A1.56,1.56,0,0,0,974.06,28c-2.06-.06-4.11-.08-6.16-.14a5.08,5.08,0,0,1-1.51-.25,1.15,1.15,0,0,1-.7-.68,12.88,12.88,0,0,1-.24-2.55c.07-6.88-.93-6.37,6.27-6.37,3.09,0,6.17,0,9.25,0Z" transform="translate(-22.68 -17.95)"/><path class="cls-4" d="M650.76,197.85c1.37,0,2.74,0,4.1,0a1.85,1.85,0,0,1,1.84,2c0,1.88,0,3.76,0,5.64,0,2.71-.25,3.39-3.19,4.52a21.18,21.18,0,0,1-9,1.65,12.59,12.59,0,0,1-2.52-.39,10.37,10.37,0,0,1-7.93-8.43,16.37,16.37,0,0,1,.54-9.05c1.73-4.94,5.55-7.21,10.53-7.47a28.24,28.24,0,0,1,8.57,1.31,1.81,1.81,0,0,1,1.25,2.75,2.34,2.34,0,0,1-.49.88,2.71,2.71,0,0,1-1.29.64,4.41,4.41,0,0,1-1.49-.28,19.9,19.9,0,0,0-6.61-.45,6.25,6.25,0,0,0-5.89,5.47,28,28,0,0,0,0,5.1c.11,2.24,2.66,5.22,5.53,5.13a48,48,0,0,0,5.09-.36,3.48,3.48,0,0,0,1.62-1.13,1.54,1.54,0,0,0,.19-1.89,1.85,1.85,0,0,0-1.12-.87c-1.35-.17-2.72-.18-4.08-.27-1.08-.08-1.67-.84-1.71-2.14-.05-1.55.59-2.38,2-2.42s2.73,0,4.09,0Z" transform="translate(-22.68 -17.95)"/><path class="cls-4" d="M330.11,198.81c0-2.56,0-5.12,0-7.69,0-.85,0-1.7.1-2.56a2.13,2.13,0,0,1,1.6-1.78,32.9,32.9,0,0,1,11.7.63,6.07,6.07,0,0,1,4.64,7,14.69,14.69,0,0,1-1,2.88,2,2,0,0,0,.21,1.93c.68,1,1.44,1.9,2,2.93a4.51,4.51,0,0,1,.19,4,7,7,0,0,1-5.59,4.71,2.94,2.94,0,0,1-.51.05l-11.78,0a1.77,1.77,0,0,1-1.39-1.32c-.08-.85-.18-1.7-.19-2.55C330.1,204.28,330.11,201.55,330.11,198.81Zm8.86,1.77-2.46.15a1.55,1.55,0,0,0-1.35,1.27c-.06,1-.11,2-.09,3a1.68,1.68,0,0,0,1.5,1.71c1.68,0,3.36,0,5,0a3.42,3.42,0,0,0,1.43-.45,3,3,0,0,0,1.78-2.28,2.66,2.66,0,0,0-1.43-2.49,4.9,4.9,0,0,0-1.84-.73A21.06,21.06,0,0,0,339,200.58Zm-.64-4c1.07,0,1.92-.06,2.76-.12a2.56,2.56,0,0,0,.45-5,13.22,13.22,0,0,0-5.53,0,1.22,1.22,0,0,0-.71.66,5.29,5.29,0,0,0,0,3.49,1.18,1.18,0,0,0,.75.63C336.87,196.46,337.71,196.52,338.33,196.59Z" transform="translate(-22.68 -17.95)"/><path class="cls-4" d="M528.28,198.9c.21-1.34.33-2.71.64-4,1.15-4.91,4.42-7.58,9.27-8.36a13,13,0,0,1,8,1.11,10,10,0,0,1,5.62,7.49,17.23,17.23,0,0,1,.05,8.11c-1.41,5.12-4.68,7.57-9.3,8.37a13.44,13.44,0,0,1-8-1.12,9.64,9.64,0,0,1-5.1-5.51A17.53,17.53,0,0,1,528.28,198.9Zm18.8.25c-.1-1.06-.13-2.26-.34-3.43a5.47,5.47,0,0,0-4.92-4.47,20.84,20.84,0,0,0-3.06,0,4.84,4.84,0,0,0-4.09,2.68,10.14,10.14,0,0,0,0,10.24,4.82,4.82,0,0,0,4.1,2.65,20.83,20.83,0,0,0,3.06,0,5.48,5.48,0,0,0,4.9-4.49C546.94,201.33,547,200.3,547.08,199.15Z" transform="translate(-22.68 -17.95)"/><path class="cls-4" d="M432.56,198.74c0-3.25,0-6.5,0-9.75a2.59,2.59,0,0,1,.59-1.36,2.94,2.94,0,0,1,2.91-.17,1.41,1.41,0,0,1,.58.81,22.39,22.39,0,0,1,.23,3.06c0,3.94,0,7.87,0,11.81a13.5,13.5,0,0,0,.25,2.54,1.12,1.12,0,0,0,.67.72,8.58,8.58,0,0,0,2,.31c2.22.07,4.45.07,6.67.13A1.58,1.58,0,0,1,448,208a2.38,2.38,0,0,1-.36,2.39,2.09,2.09,0,0,1-1.37.55c-3.94.05-7.88,0-11.81,0a4,4,0,0,1-.5-.1,1.65,1.65,0,0,1-1.34-1.33c-.07-.85-.16-1.7-.16-2.55,0-2.74,0-5.48,0-8.22Z" transform="translate(-22.68 -17.95)"/><path class="cls-3" d="M546.79,106.07c.4-.31.75-.8,1.19-.9a11.32,11.32,0,0,1,2.54-.21l45.72,0c-.22.25-.43.69-.67.71a40,40,0,0,1-4.09.22q-19.51,0-39,0C550.56,106,548.67,106,546.79,106.07Z" transform="translate(-22.68 -17.95)"/><path class="cls-3" d="M568.11,56.69h-19a5,5,0,0,1,.93-.4,54.18,54.18,0,0,1,16.67-.14A6.4,6.4,0,0,1,568.11,56.69Z" transform="translate(-22.68 -17.95)"/><path class="cls-3" d="M597,98.74c-.28-.42-.76-.82-.79-1.26a35,35,0,0,1,0-4.58c0-.44.51-.85.79-1.26A15.62,15.62,0,0,1,597,98.74Z" transform="translate(-22.68 -17.95)"/><path class="cls-3" d="M547.73,56.88a2.33,2.33,0,0,1-1.7.77l-1.91.13A5,5,0,0,1,547.73,56.88Z" transform="translate(-22.68 -17.95)"/><path class="cls-3" d="M572.34,57.69c-1-.07-2.11.15-2.87-.81A3.33,3.33,0,0,1,572.34,57.69Z" transform="translate(-22.68 -17.95)"/><path class="cls-3" d="M543.69,57.88c-.69.9-1.74.76-2.68.92A3.19,3.19,0,0,1,543.69,57.88Z" transform="translate(-22.68 -17.95)"/><path class="cls-3" d="M575.42,58.71a2.07,2.07,0,0,1-1.83-.74A1.9,1.9,0,0,1,575.42,58.71Z" transform="translate(-22.68 -17.95)"/><path class="cls-3" d="M540.61,58.92a2.32,2.32,0,0,1-1.89.83A2,2,0,0,1,540.61,58.92Z" transform="translate(-22.68 -17.95)"/><path class="cls-3" d="M583.26,62.91a2,2,0,0,1-1.53-1A1.54,1.54,0,0,1,583.26,62.91Z" transform="translate(-22.68 -17.95)"/><path class="cls-3" d="M534.39,62a1.88,1.88,0,0,1-1.41,1A1.36,1.36,0,0,1,534.39,62Z" transform="translate(-22.68 -17.95)"/><path class="cls-3" d="M578.12,59.83l-1.39-.68A1.26,1.26,0,0,1,578.12,59.83Z" transform="translate(-22.68 -17.95)"/><path class="cls-3" d="M531.38,64.1l-.91.77A.88.88,0,0,1,531.38,64.1Z" transform="translate(-22.68 -17.95)"/><path class="cls-3" d="M585.63,64.89l-.84-.76A.82.82,0,0,1,585.63,64.89Z" transform="translate(-22.68 -17.95)"/><path class="cls-3" d="M586.7,65.91l-.88-.86A.93.93,0,0,1,586.7,65.91Z" transform="translate(-22.68 -17.95)"/><path class="cls-3" d="M587.71,66.94l-.87-.88A.91.91,0,0,1,587.71,66.94Z" transform="translate(-22.68 -17.95)"/><path class="cls-3" d="M588.65,68l-.78-.86A.85.85,0,0,1,588.65,68Z" transform="translate(-22.68 -17.95)"/><path class="cls-3" d="M589.31,68.81a3.69,3.69,0,0,1-.43-.53C589.24,68.3,589.38,68.48,589.31,68.81Z" transform="translate(-22.68 -17.95)"/><path class="cls-3" d="M526.23,69.16l-.72.87A.81.81,0,0,1,526.23,69.16Z" transform="translate(-22.68 -17.95)"/><polygon class="cls-3" points="502.53 52.49 502.31 52.81 502.25 52.56 502.53 52.49"/><path class="cls-3" d="M532.35,63.35a6.51,6.51,0,0,1-.64.51A.54.54,0,0,1,532.35,63.35Z" transform="translate(-22.68 -17.95)"/><path class="cls-3" d="M579.7,60.71l-1.06-.66A1,1,0,0,1,579.7,60.71Z" transform="translate(-22.68 -17.95)"/><path class="cls-3" d="M584.44,63.86a4.69,4.69,0,0,1-.64-.54A.56.56,0,0,1,584.44,63.86Z" transform="translate(-22.68 -17.95)"/></svg>