<?xml version="1.0" encoding="utf-8"?>
<!-- Generator: Adobe Illustrator 22.0.1, SVG Export Plug-In . SVG Version: 6.00 Build 0)  -->
<svg version="1.1" id="Layer_1" xmlns="http://www.w3.org/2000/svg" xmlns:xlink="http://www.w3.org/1999/xlink" x="0px" y="0px"
	 viewBox="0 0 60 56.2" style="enable-background:new 0 0 60 56.2;" xml:space="preserve">
<style type="text/css">
	.st0{fill:#00B6BB;}
	.st1{fill:#E31E2D;}
</style>
<g>
	<path class="st0" d="M21.1,21.7c4.4,0,8.1-4.7,8.1-10.5c0-5.8-3.6-10.5-8.1-10.5c-4.4,0-8.1,4.7-8.1,10.5
		C13,17,16.7,21.7,21.1,21.7"/>
	<path class="st1" d="M38.2,21.7c4.4,0,8.1-4.7,8.1-10.5c0-5.8-3.6-10.5-8.1-10.5c-4.4,0-8.1,4.7-8.1,10.5
		C30.2,17,33.8,21.7,38.2,21.7"/>
	<path class="st1" d="M46.5,35c-1.6-2.4-3.8-4.7-6.5-7c-4.6-3.8-9.2-6.1-9.4-6.2c-0.2-0.1-0.4-0.1-0.6-0.1c-0.2,0-0.4,0-0.6,0.1
		c-0.2,0.1-4.7,2.4-9.4,6.2c-2.7,2.3-4.9,4.6-6.5,7c-2,3.1-3.1,6.1-3.1,9.2c0,5.8,4.7,10.4,10.4,10.4c3.9,0,7.3-2.1,9.1-5.3
		c1.8,3.2,5.2,5.3,9.1,5.3c5.8,0,10.4-4.7,10.4-10.4C49.5,41.2,48.5,38.1,46.5,35 M37.6,38.7c-0.7,1.1-1.8,2.2-3,3.3
		c-2.1,1.8-4.3,2.8-4.3,2.9c-0.1,0-0.2,0.1-0.3,0.1c-0.1,0-0.2,0-0.3-0.1c-0.1,0-2.2-1.1-4.3-2.9c-1.3-1.1-2.3-2.2-3-3.3
		c-0.9-1.4-1.4-2.9-1.4-4.3c0-2.7,2.2-4.8,4.8-4.8c1.8,0,3.4,1,4.2,2.5c0.8-1.5,2.4-2.5,4.2-2.5c2.7,0,4.8,2.2,4.8,4.8
		C39.1,35.8,38.6,37.3,37.6,38.7"/>
	<path class="st0" d="M8.5,16.5c-4,0-7.1,3.9-7.1,9c0,5,3.1,9,7.1,9c4,0,7.1-3.9,7.1-9C15.7,20.4,12.5,16.5,8.5,16.5"/>
	<path class="st1" d="M51.5,16.5c-4,0-7.1,3.9-7.1,9c0,5,3.1,9,7.1,9c4,0,7.1-3.9,7.1-9C58.6,20.4,55.5,16.5,51.5,16.5"/>
	<path class="st1" d="M51.3,52.1c-0.8,0-1.5-0.7-1.5-1.5c0-0.8,0.7-1.5,1.5-1.5s1.5,0.7,1.5,1.5C52.7,51.5,52.1,52.1,51.3,52.1
		 M51.3,49.2c-0.8,0-1.4,0.6-1.4,1.4c0,0.8,0.6,1.4,1.4,1.4c0.8,0,1.4-0.6,1.4-1.4C52.7,49.9,52,49.2,51.3,49.2 M51.9,51.4
		L51.9,51.4l-0.5-0.7h-0.5v0.7h-0.1v-1.6h0.6c0.2,0,0.5,0.2,0.5,0.4c0,0.2-0.2,0.4-0.4,0.4L51.9,51.4z M51.4,50.6
		c0.2,0,0.4-0.1,0.4-0.3c0-0.2-0.2-0.3-0.4-0.3h-0.5v0.7H51.4z"/>
	<path class="st1" d="M51.3,52.2c-0.9,0-1.6-0.7-1.6-1.6s0.7-1.6,1.6-1.6c0.9,0,1.6,0.7,1.6,1.6S52.1,52.2,51.3,52.2 M51.3,49.3
		c-0.7,0-1.3,0.6-1.3,1.3c0,0.7,0.6,1.3,1.3,1.3c0.7,0,1.3-0.6,1.3-1.3C52.6,49.9,52,49.3,51.3,49.3 M52,51.5h-0.2l-0.4-0.7H51v0.7
		h-0.2v-1.7h0.6c0.3,0,0.5,0.2,0.5,0.5c0,0.2-0.1,0.4-0.3,0.5L52,51.5z M51,50.6h0.4c0.2,0,0.3-0.1,0.3-0.3S51.6,50,51.4,50H51V50.6
		z"/>
</g>
</svg>
