<?xml version="1.0" encoding="utf-8"?>
<!-- Generator: Adobe Illustrator 26.1.0, SVG Export Plug-In . SVG Version: 6.00 Build 0)  -->
<svg version="1.1" id="Layer_1" xmlns="http://www.w3.org/2000/svg" xmlns:xlink="http://www.w3.org/1999/xlink" x="0px" y="0px"
	 viewBox="0 0 566.93 283.46" style="enable-background:new 0 0 566.93 283.46;" xml:space="preserve">
<style type="text/css">
	.st0{fill:#E4002B;}
	.st1{fill:#00B7BD;}
</style>
<g>
	<g>
		<path class="st0" d="M116.76,152.51c13.71,0,21.43,6.52,21.43,18.19c0,11.6-7.64,18.19-21.19,18.19h-5.53v9.85H96.89v-46.24
			H116.76z M116.99,177.38c4.52,0,7.09-2.43,7.09-6.67c0-3.94-2.65-6.14-7.4-6.14h-5.22v12.81H116.99z"/>
		<path class="st0" d="M176.36,193.53c-6.08,4.17-11.45,5.91-17.92,5.91c-12,0-19.48-6.52-19.48-18.88
			c0-12.58,7.25-19.41,19.48-19.41c10.99,0,17.92,6.29,17.92,17.74c0,1.67-0.08,2.96-0.31,5.08H152.6c0.7,3.49,2.65,4.93,6.47,4.93
			c5.14,0,8.49-0.99,13.32-3.18L176.36,193.53z M164.13,176.7c-0.16-4.02-2.1-6.14-5.69-6.14c-3.19,0-5.3,1.97-5.92,6.14H164.13z"/>
		<path class="st0" d="M206.13,196.63c-2.65,1.59-7.48,2.73-11.69,2.73c-9.12,0-13.01-4.09-13.01-14.63v-11.52h-5.14v-11.29h5.14
			v-7.88h14.1v7.88h8.88v11.29h-8.88v10.92c0,2.73,0.86,4.32,4.36,4.32c1.64,0,3.04,0,4.83-0.08L206.13,196.63z"/>
		<g>
			<path class="st1" d="M243.49,152.51c13.71,0,21.43,6.52,21.43,18.19c0,11.6-7.64,18.19-21.19,18.19h-5.53v9.85h-14.57v-46.24
				H243.49z M243.72,177.38c4.52,0,7.09-2.43,7.09-6.67c0-3.94-2.65-6.14-7.4-6.14h-5.22v12.81H243.72z"/>
		</g>
		<g>
			<path class="st1" d="M266.31,164.04c9.19-2.43,13.01-2.88,16.83-2.88c11.3,0,16.05,4.47,16.05,15.16v22.44h-13.95v-4.32
				c-2.88,3.18-6.15,5-10.28,5c-7.87,0-12.39-2.65-12.39-11.67c0-7.81,5.38-11.45,16.05-11.45h6.62c0-3.18-0.94-4.78-4.75-4.78
				c-2.73,0-6.78,0.53-12.08,1.59L266.31,164.04z M280.57,182.76c-3.12,0-4.91,0.83-4.91,3.26c0,2.2,1.64,3.56,4.05,3.56
				c2.26,0,4.05-0.99,5.53-2.2v-4.62H280.57z"/>
		</g>
		<g>
			<path class="st1" d="M316.8,168.96c2.81-5.38,5.69-7.73,9.9-7.73c1.32,0,2.57,0,4.67,0.23l-0.94,13.95
				c-1.87-0.15-3.12-0.15-4.44-0.15c-4.6,0-7.71,1.14-9.19,6.37v17.13h-14.1v-36.92h14.1V168.96z"/>
		</g>
		<g>
			<path class="st1" d="M367.76,193.53c-6.08,4.17-11.45,5.91-17.92,5.91c-12,0-19.48-6.52-19.48-18.88
				c0-12.58,7.25-19.41,19.48-19.41c10.99,0,17.92,6.29,17.92,17.74c0,1.67-0.08,2.96-0.31,5.08h-23.45
				c0.7,3.49,2.65,4.93,6.47,4.93c5.14,0,8.49-0.99,13.32-3.18L367.76,193.53z M355.52,176.7c-0.16-4.02-2.1-6.14-5.69-6.14
				c-3.19,0-5.3,1.97-5.92,6.14H355.52z"/>
		</g>
		<g>
			<path class="st1" d="M384.19,166.77c4.99-3.79,8.65-5.53,12.93-5.53c7.95,0,10.99,4.02,10.99,14.02v23.5h-14.1V179.2
				c0-3.87-0.7-5.08-3.51-5.08c-2.42,0-4.44,1.36-6.31,3.41v21.23h-14.1v-36.92h14.1V166.77z"/>
		</g>
		<g>
			<path class="st1" d="M438.58,196.63c-2.65,1.59-7.48,2.73-11.69,2.73c-9.12,0-13.01-4.09-13.01-14.63v-11.52h-5.14v-11.29h5.14
				v-7.88h14.1v7.88h8.88v11.29h-8.88v10.92c0,2.73,0.86,4.32,4.36,4.32c1.64,0,3.04,0,4.83-0.08L438.58,196.63z"/>
		</g>
		<g>
			<path class="st1" d="M468.96,173.21c-6.47-1.89-10.83-2.35-12.86-2.35c-1.25,0-2.34,0.38-2.34,1.52c0,1.74,1.87,1.74,8.65,3.64
				c7.17,2.05,10.21,4.93,10.21,10.92c0,8.11-6.23,12.51-15.66,12.51c-5.3,0-12.7-1.89-18.54-4.7l3.43-9.25
				c5.77,2.58,11.14,4.09,14.1,4.09c1.95,0,2.65-0.46,2.65-1.36c0-1.52-1.95-1.74-7.87-3.49c-7.09-2.12-10.21-5.15-10.21-11.6
				c0-7.28,5.38-11.98,13.79-11.98c5.14,0,9.97,0.3,18,2.5L468.96,173.21z"/>
		</g>
	</g>
</g>
<g>
	<g>
		<g>
			<g>
				<g>
					<g>
						<g>
							<g>
								<path class="st1" d="M268.36,83.87c7.23,0,13.12-7.68,13.12-17.13c0-9.45-5.88-17.13-13.12-17.13
									c-7.24,0-13.12,7.68-13.12,17.13C255.24,76.19,261.12,83.87,268.36,83.87L268.36,83.87z M268.36,83.87"/>
							</g>
						</g>
					</g>
					<g>
						<g>
							<path class="st0" d="M296.25,83.87c7.23,0,13.12-7.68,13.12-17.13c0-9.45-5.89-17.13-13.12-17.13
								c-7.24,0-13.12,7.68-13.12,17.13C283.13,76.19,289.02,83.87,296.25,83.87L296.25,83.87z M296.25,83.87"/>
						</g>
					</g>
				</g>
				<g>
					<g>
						<path class="st0" d="M309.66,105.58c-2.57-3.86-6.14-7.7-10.6-11.42c-7.51-6.26-14.91-9.99-15.23-10.15
							c-0.31-0.15-0.65-0.23-0.98-0.23c-0.34,0-0.67,0.08-0.98,0.23c-0.31,0.16-7.71,3.89-15.23,10.15
							c-4.46,3.72-8.03,7.56-10.6,11.42c-3.31,4.97-5,10-5,14.94c0,9.37,7.63,17,17,17c6.34,0,11.88-3.49,14.8-8.65
							c2.92,5.16,8.46,8.65,14.8,8.65c9.37,0,17-7.63,17-17C314.65,115.58,312.97,110.55,309.66,105.58z M295.29,111.51
							c-1.19,1.79-2.85,3.57-4.92,5.3c-3.49,2.91-6.92,4.64-7.07,4.71c-0.14,0.07-0.3,0.11-0.46,0.11s-0.31-0.04-0.46-0.11
							c-0.14-0.07-3.58-1.8-7.07-4.71c-2.07-1.73-3.73-3.51-4.92-5.3c-1.54-2.31-2.32-4.64-2.32-6.94c0-4.35,3.54-7.89,7.89-7.89
							c2.94,0,5.51,1.62,6.87,4.01c1.36-2.39,3.93-4.01,6.87-4.01c4.35,0,7.89,3.54,7.89,7.89
							C297.61,106.87,296.83,109.2,295.29,111.51z"/>
					</g>
				</g>
			</g>
			<g>
				<path class="st1" d="M247.9,75.34c-6.51,0-11.61,6.41-11.61,14.6c0,8.18,5.1,14.59,11.61,14.59s11.61-6.41,11.61-14.59
					C259.51,81.75,254.41,75.34,247.9,75.34z"/>
			</g>
			<path class="st0" d="M317.8,75.34c-6.51,0-11.61,6.41-11.61,14.6c0,8.18,5.1,14.59,11.61,14.59s11.61-6.41,11.61-14.59
				C329.41,81.75,324.31,75.34,317.8,75.34z"/>
		</g>
	</g>
</g>
<g>
	<g>
		<path class="st1" d="M482.65,167.88c-3.12,0-5.66-2.54-5.66-5.66c0-3.13,2.54-5.66,5.66-5.66s5.66,2.54,5.66,5.66
			C488.32,165.35,485.78,167.88,482.65,167.88z M482.65,156.88c-2.95,0-5.34,2.39-5.34,5.34c0,2.95,2.39,5.34,5.34,5.34
			s5.34-2.39,5.34-5.34C488,159.27,485.6,156.88,482.65,156.88z M485.24,165.25h-0.37l-1.63-2.79h-1.88v2.79h-0.32v-5.98h2.18
			c0.94,0,1.83,0.57,1.83,1.59c0,0.86-0.65,1.44-1.47,1.56L485.24,165.25z M483.23,162.14c0.77,0,1.51-0.43,1.51-1.28
			s-0.75-1.28-1.51-1.28h-1.87v2.55H483.23z"/>
		<path class="st1" d="M482.65,168.13c-3.26,0-5.91-2.65-5.91-5.91c0-3.26,2.65-5.91,5.91-5.91c3.26,0,5.91,2.65,5.91,5.91
			C488.57,165.48,485.91,168.13,482.65,168.13z M482.65,157.13c-2.81,0-5.09,2.28-5.09,5.09c0,2.81,2.28,5.09,5.09,5.09
			s5.09-2.28,5.09-5.09C487.75,159.41,485.46,157.13,482.65,157.13z M485.67,165.5h-0.94l-1.63-2.79h-1.49v2.79h-0.82v-6.48h2.43
			c1.04,0,2.08,0.63,2.08,1.84c0,0.81-0.52,1.47-1.33,1.73L485.67,165.5z M481.61,161.89h1.62c0.61,0,1.26-0.32,1.26-1.03
			c0-0.71-0.66-1.03-1.26-1.03h-1.62V161.89z"/>
	</g>
</g>
</svg>
