<?xml version="1.0" encoding="utf-8"?>
<!-- Generator: Adobe Illustrator 25.4.0, SVG Export Plug-In . SVG Version: 6.00 Build 0)  -->
<svg version="1.1" id="Layer_1" xmlns="http://www.w3.org/2000/svg" xmlns:xlink="http://www.w3.org/1999/xlink" x="0px" y="0px"
	 viewBox="0 0 396.57 154.86" style="enable-background:new 0 0 396.57 154.86;" xml:space="preserve">
<style type="text/css">
	.st0{fill:#E31E2E;}
	.st1{fill:#00B6BC;}
</style>
<g>
	<g>
		<g>
			<path class="st0" d="M22.01,106.04c13.71,0,21.43,6.52,21.43,18.19c0,11.6-7.64,18.19-21.19,18.19h-5.53v9.85H2.14v-46.24
				L22.01,106.04L22.01,106.04z M22.24,130.91c4.52,0,7.09-2.43,7.09-6.67c0-3.94-2.65-6.14-7.4-6.14h-5.22v12.81H22.24z"/>
			<path class="st0" d="M81.61,147.06c-6.08,4.17-11.45,5.91-17.92,5.91c-12,0-19.48-6.52-19.48-18.88
				c0-12.58,7.25-19.41,19.48-19.41c10.99,0,17.92,6.29,17.92,17.74c0,1.67-0.08,2.96-0.31,5.08H57.85c0.7,3.49,2.65,4.93,6.47,4.93
				c5.14,0,8.49-0.99,13.32-3.18L81.61,147.06z M69.38,130.23c-0.16-4.02-2.1-6.14-5.69-6.14c-3.19,0-5.3,1.97-5.92,6.14H69.38z"/>
			<path class="st0" d="M111.38,150.16c-2.65,1.59-7.48,2.73-11.69,2.73c-9.12,0-13.01-4.09-13.01-14.63v-11.52h-5.14v-11.29h5.14
				v-7.88h14.1v7.88h8.88v11.29h-8.88v10.92c0,2.73,0.86,4.32,4.36,4.32c1.64,0,3.04,0,4.83-0.08L111.38,150.16z"/>
			<g>
				<path class="st1" d="M148.74,106.04c13.71,0,21.43,6.52,21.43,18.19c0,11.6-7.64,18.19-21.19,18.19h-5.53v9.85h-14.57v-46.24
					L148.74,106.04L148.74,106.04z M148.97,130.91c4.52,0,7.09-2.43,7.09-6.67c0-3.94-2.65-6.14-7.4-6.14h-5.22v12.81H148.97z"/>
			</g>
			<g>
				<path class="st1" d="M171.56,117.57c9.19-2.43,13.01-2.88,16.83-2.88c11.3,0,16.05,4.47,16.05,15.16v22.44h-13.95v-4.32
					c-2.88,3.18-6.15,5-10.28,5c-7.87,0-12.39-2.65-12.39-11.67c0-7.81,5.38-11.45,16.05-11.45h6.62c0-3.18-0.94-4.78-4.75-4.78
					c-2.73,0-6.78,0.53-12.08,1.59L171.56,117.57z M185.82,136.29c-3.12,0-4.91,0.83-4.91,3.26c0,2.2,1.64,3.56,4.05,3.56
					c2.26,0,4.05-0.99,5.53-2.2v-4.62H185.82z"/>
			</g>
			<g>
				<path class="st1" d="M222.05,122.49c2.81-5.38,5.69-7.73,9.9-7.73c1.32,0,2.57,0,4.67,0.23l-0.94,13.95
					c-1.87-0.15-3.12-0.15-4.44-0.15c-4.6,0-7.71,1.14-9.19,6.37v17.13h-14.1v-36.92h14.1V122.49z"/>
			</g>
			<g>
				<path class="st1" d="M273.01,147.06c-6.08,4.17-11.45,5.91-17.92,5.91c-12,0-19.48-6.52-19.48-18.88
					c0-12.58,7.25-19.41,19.48-19.41c10.99,0,17.92,6.29,17.92,17.74c0,1.67-0.08,2.96-0.31,5.08h-23.45
					c0.7,3.49,2.65,4.93,6.47,4.93c5.14,0,8.49-0.99,13.32-3.18L273.01,147.06z M260.77,130.23c-0.16-4.02-2.1-6.14-5.69-6.14
					c-3.19,0-5.3,1.97-5.92,6.14H260.77z"/>
			</g>
			<g>
				<path class="st1" d="M289.44,120.3c4.99-3.79,8.65-5.53,12.93-5.53c7.95,0,10.99,4.02,10.99,14.02v23.5h-14.1v-19.56
					c0-3.87-0.7-5.08-3.51-5.08c-2.42,0-4.44,1.36-6.31,3.41v21.23h-14.1v-36.92h14.1L289.44,120.3L289.44,120.3z"/>
			</g>
			<g>
				<path class="st1" d="M343.83,150.16c-2.65,1.59-7.48,2.73-11.69,2.73c-9.12,0-13.01-4.09-13.01-14.63v-11.52h-5.14v-11.29h5.14
					v-7.88h14.1v7.88h8.88v11.29h-8.88v10.92c0,2.73,0.86,4.32,4.36,4.32c1.64,0,3.04,0,4.83-0.08L343.83,150.16z"/>
			</g>
			<g>
				<path class="st1" d="M374.21,126.74c-6.47-1.89-10.83-2.35-12.86-2.35c-1.25,0-2.34,0.38-2.34,1.52c0,1.74,1.87,1.74,8.65,3.64
					c7.17,2.05,10.21,4.93,10.21,10.92c0,8.11-6.23,12.51-15.66,12.51c-5.3,0-12.7-1.89-18.54-4.7l3.43-9.25
					c5.77,2.58,11.14,4.09,14.1,4.09c1.95,0,2.65-0.46,2.65-1.36c0-1.52-1.95-1.74-7.87-3.49c-7.09-2.12-10.21-5.15-10.21-11.6
					c0-7.28,5.38-11.98,13.79-11.98c5.14,0,9.97,0.3,18,2.5L374.21,126.74z"/>
			</g>
		</g>
	</g>
	<g>
		<g>
			<g>
				<g>
					<g>
						<g>
							<g>
								<g>
									<path class="st1" d="M173.61,37.4c7.23,0,13.12-7.68,13.12-17.13s-5.88-17.13-13.12-17.13s-13.12,7.68-13.12,17.13
										C160.49,29.72,166.37,37.4,173.61,37.4L173.61,37.4z"/>
								</g>
							</g>
						</g>
						<g>
							<g>
								<path class="st0" d="M201.5,37.4c7.23,0,13.12-7.68,13.12-17.13S208.73,3.14,201.5,3.14c-7.24,0-13.12,7.68-13.12,17.13
									S194.27,37.4,201.5,37.4L201.5,37.4z"/>
							</g>
						</g>
					</g>
					<g>
						<g>
							<path class="st0" d="M214.91,59.11c-2.57-3.86-6.14-7.7-10.6-11.42c-7.51-6.26-14.91-9.99-15.23-10.15
								c-0.31-0.15-0.65-0.23-0.98-0.23c-0.34,0-0.67,0.08-0.98,0.23c-0.31,0.16-7.71,3.89-15.23,10.15
								c-4.46,3.72-8.03,7.56-10.6,11.42c-3.31,4.97-5,10-5,14.94c0,9.37,7.63,17,17,17c6.34,0,11.88-3.49,14.8-8.65
								c2.92,5.16,8.46,8.65,14.8,8.65c9.37,0,17-7.63,17-17C219.9,69.11,218.22,64.08,214.91,59.11z M200.54,65.04
								c-1.19,1.79-2.85,3.57-4.92,5.3c-3.49,2.91-6.92,4.64-7.07,4.71c-0.14,0.07-0.3,0.11-0.46,0.11s-0.31-0.04-0.46-0.11
								c-0.14-0.07-3.58-1.8-7.07-4.71c-2.07-1.73-3.73-3.51-4.92-5.3c-1.54-2.31-2.32-4.64-2.32-6.94c0-4.35,3.54-7.89,7.89-7.89
								c2.94,0,5.51,1.62,6.87,4.01c1.36-2.39,3.93-4.01,6.87-4.01c4.35,0,7.89,3.54,7.89,7.89
								C202.86,60.4,202.08,62.73,200.54,65.04z"/>
						</g>
					</g>
				</g>
				<g>
					<path class="st1" d="M153.15,28.87c-6.51,0-11.61,6.41-11.61,14.6c0,8.18,5.1,14.59,11.61,14.59s11.61-6.41,11.61-14.59
						C164.76,35.28,159.66,28.87,153.15,28.87z"/>
				</g>
				<path class="st0" d="M223.05,28.87c-6.51,0-11.61,6.41-11.61,14.6c0,8.18,5.1,14.59,11.61,14.59s11.61-6.41,11.61-14.59
					C234.66,35.28,229.56,28.87,223.05,28.87z"/>
			</g>
		</g>
	</g>
	<g>
		<g>
			<path class="st1" d="M387.9,121.41c-3.12,0-5.66-2.54-5.66-5.66c0-3.13,2.54-5.66,5.66-5.66s5.66,2.54,5.66,5.66
				C393.57,118.88,391.03,121.41,387.9,121.41z M387.9,110.41c-2.95,0-5.34,2.39-5.34,5.34s2.39,5.34,5.34,5.34s5.34-2.39,5.34-5.34
				C393.25,112.8,390.85,110.41,387.9,110.41z M390.49,118.78h-0.37l-1.63-2.79h-1.88v2.79h-0.32v-5.98h2.18
				c0.94,0,1.83,0.57,1.83,1.59c0,0.86-0.65,1.44-1.47,1.56L390.49,118.78z M388.48,115.67c0.77,0,1.51-0.43,1.51-1.28
				s-0.75-1.28-1.51-1.28h-1.87v2.55L388.48,115.67L388.48,115.67z"/>
			<path class="st1" d="M387.9,121.66c-3.26,0-5.91-2.65-5.91-5.91c0-3.26,2.65-5.91,5.91-5.91s5.91,2.65,5.91,5.91
				C393.82,119.01,391.16,121.66,387.9,121.66z M387.9,110.66c-2.81,0-5.09,2.28-5.09,5.09s2.28,5.09,5.09,5.09s5.09-2.28,5.09-5.09
				C393,112.94,390.71,110.66,387.9,110.66z M390.92,119.03h-0.94l-1.63-2.79h-1.49v2.79h-0.82v-6.48h2.43
				c1.04,0,2.08,0.63,2.08,1.84c0,0.81-0.52,1.47-1.33,1.73L390.92,119.03z M386.86,115.42h1.62c0.61,0,1.26-0.32,1.26-1.03
				c0-0.71-0.66-1.03-1.26-1.03h-1.62V115.42z"/>
		</g>
	</g>
</g>
</svg>
